<?xml version="1.0" encoding="UTF-8" standalone="no"?>
<svg
   xmlns:dc="http://purl.org/dc/elements/1.1/"
   xmlns:cc="http://creativecommons.org/ns#"
   xmlns:rdf="http://www.w3.org/1999/02/22-rdf-syntax-ns#"
   xmlns:svg="http://www.w3.org/2000/svg"
   xmlns="http://www.w3.org/2000/svg"
   xmlns:sodipodi="http://sodipodi.sourceforge.net/DTD/sodipodi-0.dtd"
   xmlns:inkscape="http://www.inkscape.org/namespaces/inkscape"
   version="1.1"
   width="512"
   height="512"
   viewBox="0 0 512 512"
   id="svg4"
   sodipodi:docname="account.svg"
   inkscape:version="0.92.4 (5da689c313, 2019-01-14)">
  <metadata
     id="metadata10">
    <rdf:RDF>
      <cc:Work
         rdf:about="">
        <dc:format>image/svg+xml</dc:format>
        <dc:type
           rdf:resource="http://purl.org/dc/dcmitype/StillImage" />
        <dc:title></dc:title>
      </cc:Work>
    </rdf:RDF>
  </metadata>
  <defs
     id="defs8" />
  <sodipodi:namedview
     pagecolor="#ffffff"
     bordercolor="#666666"
     borderopacity="1"
     objecttolerance="10"
     gridtolerance="10"
     guidetolerance="10"
     inkscape:pageopacity="0"
     inkscape:pageshadow="2"
     inkscape:window-width="1920"
     inkscape:window-height="1001"
     id="namedview6"
     showgrid="false"
     inkscape:zoom="1.2291667"
     inkscape:cx="183.74425"
     inkscape:cy="265.46954"
     inkscape:window-x="-9"
     inkscape:window-y="-9"
     inkscape:window-maximized="1"
     inkscape:current-layer="svg4" />
  <path
     d="m 195.86441,132.40678 a 91.864405,91.864405 0 0 1 91.8644,91.8644 91.864405,91.864405 0 0 1 -91.8644,91.86441 91.864405,91.864405 0 0 1 -91.8644,-91.86441 91.864405,91.864405 0 0 1 91.8644,-91.8644 m 0,229.66101 c 101.51017,0 183.72881,41.10933 183.72881,91.86441 v 45.9322 H 12.135592 v -45.9322 c 0,-50.75508 82.218644,-91.86441 183.728818,-91.86441 z"
     id="path2"
     inkscape:connector-curvature="0"
     style="stroke-width:22.9661026" />
  <g
     stroke="null"
     id="svg_26"
     style="vector-effect:non-scaling-stroke;fill:#000000;fill-opacity:1"
     transform="matrix(0.31603477,0,0,0.31603477,323.07291,22.095519)">
    <path
       stroke-miterlimit="4"
       id="svg_23"
       d="M 259.61105,33.773714 65.398586,138.46604 65.340849,380.43687 256.33822,481.97778 337.16755,439.26914 336.82878,403.30422 257.3543,444.407 103.17107,362.0065 l 0.17608,-207.53284 153.84894,-83.495823 156.72076,84.419413 -1.25659,207.63496 -16.8019,7.34706 -0.69717,-211.4129 -140.86583,99.0393 -134.88748,-90.14668 -0.0255,189.6548 38.63544,19.09867 -0.20605,-133.49584 99.40354,62.09511 103.0846,-69.51181 -0.0628,191.5345 88.70767,-46.69081 -0.0255,-243.96192 L 259.61105,33.773712 Z m 94.107,101.508426 -96.79684,65.99836 -95.93309,-61.39424 -33.29972,19.60458 126.60176,87.62653 132.45267,-92.75047 z m -181.99988,132.9807 0.0402,117.29329 77.91352,41.39055 -0.0255,-35.73752 -51.10288,-24.06946 -0.083,-40.59223 51.11768,31.0081 0.20606,-37.46872 z"
       inkscape:connector-curvature="0"
       style="fill:#000000;fill-opacity:1;stroke-width:0.241492;stroke-miterlimit:4" />
  </g>
</svg>
