<svg width="512" height="512" xmlns="http://www.w3.org/2000/svg" style="vector-effect: non-scaling-stroke;" stroke="null">
 <!-- Created with Method Draw - http://github.com/duopixel/Method-Draw/ -->

 <g stroke="null">
  <title stroke="null">background</title>
  <rect stroke="null" fill="none" id="canvas_background" height="514" width="514" y="-1" x="-1"/>
  <g style="vector-effect: non-scaling-stroke;" stroke="null" display="none" overflow="visible" y="0" x="0" height="100%" width="100%" id="canvasGrid">
   <rect fill="url(#gridpattern)" stroke-width="0" y="0" x="0" height="100%" width="100%"/>
  </g>
 </g>
 <g stroke="null">
  <title stroke="null">Layer 1</title>
  <metadata style="vector-effect: non-scaling-stroke;" stroke="null" transform="matrix(0.004822531324109924,0,0,0.004822531324109924,0,0) " id="svg_15">image/svg+xml</metadata>

  <!-- Created with Method Draw - http://github.com/duopixel/Method-Draw/ -->
  <metadata transform="matrix(0.06781675749357419,0,0,0.06781675749357419,0,0) " id="svg_24">image/svg+xml</metadata>

  <!-- Created with Method Draw - http://github.com/duopixel/Method-Draw/ -->
  <g stroke="null" id="svg_26">
   <path fill="#7a528f" stroke-width="0.241492" stroke-miterlimit="4" id="svg_23" d="m259.611054,33.773714l-194.212468,104.692324l-0.057737,241.970836l190.997368,101.540905l80.829329,-42.708642l-0.338765,-35.96492l-79.474478,41.102788l-154.18323,-82.400501l0.176074,-207.532843l153.848941,-83.495824l156.720758,84.419413l-1.256584,207.63496l-16.801904,7.34706l-0.697163,-211.412897l-140.865836,99.039298l-134.887477,-90.146683l-0.025482,189.654804l38.635445,19.098669l-0.206053,-133.495845l99.403537,62.095109l103.084604,-69.511805l-0.062833,191.534501l88.707673,-46.690814l-0.025482,-243.961913l-189.308238,-102.807982zm94.106998,101.508424l-96.796839,65.998363l-95.933097,-61.394243l-33.299715,19.604582l126.601754,87.626531l132.452671,-92.750473l-33.024774,-19.084761zm-181.999878,132.980698l0.040183,117.293297l77.913519,41.390548l-0.025482,-35.737523l-51.102885,-24.069458l-0.082979,-40.59223l51.117684,31.008096l0.206053,-37.468712l-78.066093,-51.824018z"/>
  </g>
 </g>
</svg>