<?xml version="1.0" encoding="UTF-8" standalone="no"?>
<svg
   xmlns:dc="http://purl.org/dc/elements/1.1/"
   xmlns:cc="http://creativecommons.org/ns#"
   xmlns:rdf="http://www.w3.org/1999/02/22-rdf-syntax-ns#"
   xmlns:svg="http://www.w3.org/2000/svg"
   xmlns="http://www.w3.org/2000/svg"
   xmlns:sodipodi="http://sodipodi.sourceforge.net/DTD/sodipodi-0.dtd"
   xmlns:inkscape="http://www.inkscape.org/namespaces/inkscape"
   width="600"
   height="80"
   version="1.1"
   id="svg17"
   sodipodi:docname="toolbar-background.svg"
   inkscape:version="1.0.1 (3bc2e813f5, 2020-09-07)">
  <metadata
     id="metadata23">
    <rdf:RDF>
      <cc:Work
         rdf:about="">
        <dc:format>image/svg+xml</dc:format>
        <dc:type
           rdf:resource="http://purl.org/dc/dcmitype/StillImage" />
        <dc:title />
      </cc:Work>
    </rdf:RDF>
  </metadata>
  <defs
     id="defs21" />
  <sodipodi:namedview
     pagecolor="#ffffff"
     bordercolor="#666666"
     borderopacity="1"
     objecttolerance="10"
     gridtolerance="10"
     guidetolerance="10"
     inkscape:pageopacity="0"
     inkscape:pageshadow="2"
     inkscape:window-width="1920"
     inkscape:window-height="1106"
     id="namedview19"
     showgrid="false"
     inkscape:zoom="1.4142136"
     inkscape:cx="122.39426"
     inkscape:cy="160.04108"
     inkscape:window-x="-11"
     inkscape:window-y="-11"
     inkscape:window-maximized="1"
     inkscape:current-layer="svg17"
     inkscape:document-rotation="0" />
  <!-- Created with Method Draw - http://github.com/duopixel/Method-Draw/ -->
  <path
     style="fill:#ffc107;fill-opacity:0.30000001;stroke:none;stroke-width:0.0318638;stroke-linecap:butt;stroke-linejoin:miter;stroke-miterlimit:4;stroke-dasharray:none;stroke-opacity:1"
     d="m 107.66473,2.4787825 -24.623531,14.0381365 -0.008,32.445736 24.215921,13.615567 10.24808,-5.726778 -0.0429,-4.822518 -10.0763,5.51145 -19.548381,-11.049036 0.0223,-27.827967 19.505991,-11.1959105 19.8701,11.3197565 -0.15932,27.841657 -2.13025,0.985164 -0.0884,-28.348241 -17.85991,13.280127 -17.101921,-12.087722 -0.004,25.430708 4.89846,2.560933 -0.0261,-17.900388 12.603041,8.3263 13.06976,-9.320801 -0.008,25.682759 11.24695,-6.260747 -0.004,-32.712718 z m 11.93151,13.6112115 -12.27254,8.849684 -12.163041,-8.232322 -4.22195,2.628767 16.051411,11.749792 16.79323,-12.436857 z m -23.075151,17.831309 0.005,15.727791 9.878391,5.550034 -0.003,-4.792022 -6.479157,-3.227459 -0.0105,-5.442992 6.481037,4.157858 0.0261,-5.024156 z"
     id="path852"
     inkscape:connector-curvature="0" />
  <path
     style="fill:#ffc107;fill-opacity:0.30000001;stroke:none;stroke-width:0.0180069;stroke-linecap:butt;stroke-linejoin:miter;stroke-miterlimit:4;stroke-dasharray:none;stroke-opacity:1"
     d="M 47.528056,7.7610855 40.751343,22.274719 51.338997,37.244653 66.954485,35.621018 69.812678,29.633992 68.218668,27.423338 65.369425,33.254962 52.74491,34.538974 43.671515,21.694361 49.01523,10.162368 61.87654,8.8982255 70.891198,21.793869 70.230068,22.9437 60.935775,9.8952225 57.031757,21.851367 l -11.835002,0.0064 8.29961,11.732548 3.09566,-0.417585 -5.855139,-8.249109 8.531794,-0.27292 2.986692,-8.566048 8.379766,11.850312 3.14468,-6.55941 L 63.100073,6.2859485 Z m 9.947141,2.3842695 -2.772704,8.088496 -8.298155,0.172641 -1.089542,2.59082 11.240074,0.180749 3.687226,-11.2189495 z m -4.824253,15.758031 5.136258,7.25373 6.368659,-0.664248 -1.565786,-2.209502 -4.04242,0.626087 -1.78156,-2.507483 4.34699,-0.197499 -1.627951,-2.326217 z"
     id="path852-6"
     inkscape:connector-curvature="0" />
  <path
     style="fill:#ffc107;fill-opacity:0.30000001;stroke:none;stroke-width:0.0108419;stroke-linecap:butt;stroke-linejoin:miter;stroke-miterlimit:4;stroke-dasharray:none;stroke-opacity:1"
     d="m 13.233904,27.724183 3.411918,9.020552 10.904463,1.723649 5.860743,-7.416574 -1.381102,-3.748125 -1.623103,-0.241385 1.317844,3.678971 -4.750542,5.983983 -9.351657,-1.483724 -2.728134,-7.149796 4.858589,-6.077751 9.348998,1.530493 0.218093,0.76823 -9.532391,-1.474115 3.515947,6.707115 -4.969846,5.106645 8.546965,1.350187 1.12057,-1.510494 -6.017623,-0.940805 3.466996,-3.79413 -2.439349,-4.887133 8.631426,1.365092 -1.507575,-4.112162 -10.994767,-1.73421 z m 5.207611,-3.288075 2.323298,4.594206 -3.412067,3.651226 0.65955,1.558429 4.800542,-4.771495 -3.289117,-6.303878 z m 4.768924,8.701366 5.2863,0.832624 2.389368,-3.025659 -1.610751,-0.253074 -1.428442,2.006411 -1.829917,-0.285221 1.741243,-1.957678 -1.687212,-0.275299 z"
     id="path852-6-5"
     inkscape:connector-curvature="0" />
  <path
     style="fill:#ffc107;fill-opacity:0.30000001;stroke:none;stroke-width:0.00546486;stroke-linecap:butt;stroke-linejoin:miter;stroke-miterlimit:4;stroke-dasharray:none;stroke-opacity:1"
     d="m 1.7910443,47.983501 3.971939,2.80267 5.0395107,-2.359788 0.35249,-4.751594 -1.6351078,-1.174867 -0.7458315,0.357586 1.5891673,1.163859 -0.293535,3.839943 -4.3234427,2.021445 -3.158133,-2.214702 0.312152,-3.909614 4.335539,-2.001161 0.308012,0.259152 -4.396186,2.076496 3.362048,1.8074 -0.632854,3.535579 3.9497639,-1.849947 0.04127,-0.947102 -2.7781129,1.306584 0.376045,-2.563183 -2.398593,-1.351567 3.9892434,-1.867578 -1.7907154,-1.291142 -5.080202,2.380879 z m 1.245696,-2.84345 2.267411,1.262041 -0.393473,2.488003 0.715478,0.464409 0.65681,-3.347838 -3.153463,-1.703101 z m 4.448355,2.286187 2.4422339,-1.145229 0.1431508,-1.938009 -0.7439828,0.349214 -0.02978,1.241098 -0.8445535,0.39769 0.174138,-1.309086 -0.7821784,0.361527 z"
     id="path852-6-5-1"
     inkscape:connector-curvature="0" />
  <path
     style="fill:#7a528f;fill-opacity:1;stroke:none;stroke-width:1.14414835px;stroke-linecap:butt;stroke-linejoin:miter;stroke-opacity:1"
     d="m 988,-130 c 11.17404,94.109893 77.1587,121.49467 204.9877,114.72067 144.0221,-7.444125 223.0822,-32.794709 335.0853,9.51047 159.4739,66.59415 234.8538,63.26783 403.8915,-7.27146 l -0.1086,-118.5175 z"
     id="path912"
     inkscape:connector-curvature="0"
     sodipodi:nodetypes="cccccc" />
  <path
     style="fill:none;stroke:#000000;stroke-width:1px;stroke-linecap:butt;stroke-linejoin:miter;stroke-opacity:1"
     d="m -38.183766,145.76093 650.538236,0.7071"
     id="path944"
     inkscape:connector-curvature="0" />
  <path
     style="fill:none;stroke:#000000;stroke-width:1px;stroke-linecap:butt;stroke-linejoin:miter;stroke-opacity:1"
     d="m 274.35743,159.90306 -0.70711,143.54267"
     id="path946"
     inkscape:connector-curvature="0" />
  <path
     style="fill:none;stroke:#000000;stroke-width:1;stroke-linecap:butt;stroke-linejoin:miter;stroke-miterlimit:4;stroke-dasharray:1, 1;stroke-dashoffset:0;stroke-opacity:1"
     d="m 185.96909,142.9325 -1.41422,143.54268"
     id="path948"
     inkscape:connector-curvature="0" />
  <path
     style="fill:none;stroke:#000000;stroke-width:1;stroke-linecap:butt;stroke-linejoin:miter;stroke-miterlimit:4;stroke-dasharray:1, 1;stroke-dashoffset:0;stroke-opacity:1"
     d="m 450.42702,166.26702 1.41422,151.32085"
     id="path950"
     inkscape:connector-curvature="0" />
  <path
     style="fill:none;stroke:#000000;stroke-width:1;stroke-linecap:butt;stroke-linejoin:miter;stroke-miterlimit:4;stroke-dasharray:1, 1;stroke-dashoffset:0;stroke-opacity:1"
     d="m -14.142135,127.37615 627.910815,0.70711"
     id="path952"
     inkscape:connector-curvature="0" />
  <path
     style="fill:none;stroke:#000000;stroke-width:1;stroke-linecap:butt;stroke-linejoin:miter;stroke-miterlimit:4;stroke-dasharray:1, 1;stroke-dashoffset:0;stroke-opacity:1"
     d="M -9.8994949,-32.429976 617.30422,-35.96551"
     id="path954"
     inkscape:connector-curvature="0" />
</svg>
